<?xml version="1.0" encoding="UTF-8" standalone="no"?>
<!DOCTYPE svg PUBLIC "-//W3C//DTD SVG 1.1//EN"
 "http://www.w3.org/Graphics/SVG/1.1/DTD/svg11.dtd">
<!-- Generated by graphviz version 2.38.0 (20140413.2041)
 -->
<!-- Title: dependencies Pages: 1 -->
<svg width="673pt" height="431pt"
 viewBox="0.00 0.00 672.72 431.00" xmlns="http://www.w3.org/2000/svg" xmlns:xlink="http://www.w3.org/1999/xlink">
<g id="graph0" class="graph" transform="scale(1 1) rotate(0) translate(4 427)">
<title>dependencies</title>
<polygon fill="white" stroke="none" points="-4,4 -4,-427 668.724,-427 668.724,4 -4,4"/>
<g id="clust1" class="cluster"><title>cluster_MainModule</title>
<polygon fill="none" stroke="black" points="223,-8 223,-83 310,-83 310,-8 223,-8"/>
<text text-anchor="middle" x="266.5" y="-67.8" font-family="Times New Roman,serif" font-size="14.00">MainModule</text>
</g>
<g id="clust2" class="cluster"><title>cluster_Module1</title>
<polygon fill="none" stroke="black" points="8,-91 8,-166 110,-166 110,-91 8,-91"/>
<text text-anchor="middle" x="59" y="-150.8" font-family="Times New Roman,serif" font-size="14.00">Module1</text>
</g>
<g id="clust3" class="cluster"><title>cluster_Module2</title>
<polygon fill="none" stroke="black" points="118,-91 118,-166 220,-166 220,-91 118,-91"/>
<text text-anchor="middle" x="169" y="-150.8" font-family="Times New Roman,serif" font-size="14.00">Module2</text>
</g>
<g id="clust4" class="cluster"><title>cluster_Module3</title>
<polygon fill="none" stroke="black" points="198,-174 198,-249 300,-249 300,-174 198,-174"/>
<text text-anchor="middle" x="249" y="-233.8" font-family="Times New Roman,serif" font-size="14.00">Module3</text>
</g>
<g id="clust5" class="cluster"><title>cluster_Module4</title>
<polygon fill="none" stroke="black" points="38,-174 38,-249 140,-249 140,-174 38,-174"/>
<text text-anchor="middle" x="89" y="-233.8" font-family="Times New Roman,serif" font-size="14.00">Module4</text>
</g>
<g id="clust6" class="cluster"><title>cluster_Module5</title>
<polygon fill="none" stroke="black" points="278,-257 278,-332 380,-332 380,-257 278,-257"/>
<text text-anchor="middle" x="329" y="-316.8" font-family="Times New Roman,serif" font-size="14.00">Module5</text>
</g>
<g id="clust7" class="cluster"><title>cluster_Module6</title>
<polygon fill="none" stroke="black" points="259,-340 259,-415 399,-415 399,-340 259,-340"/>
<text text-anchor="middle" x="329" y="-399.8" font-family="Times New Roman,serif" font-size="14.00">Module6</text>
</g>
<!-- Log -->
<g id="node1" class="node"><title>Log</title>
<ellipse fill="none" stroke="black" cx="266" cy="-34" rx="27" ry="18"/>
<text text-anchor="middle" x="266" y="-31.8" font-family="Verdana" font-size="9.00">Log</text>
</g>
<!-- _1_Service1 -->
<g id="node2" class="node"><title>_1_Service1</title>
<ellipse fill="none" stroke="black" cx="59" cy="-117" rx="42.949" ry="18"/>
<text text-anchor="middle" x="59" y="-114.8" font-family="Verdana" font-size="9.00">_1_Service1</text>
</g>
<!-- _1_Service1&#45;&gt;Log -->
<g id="edge1" class="edge"><title>_1_Service1&#45;&gt;Log</title>
<path fill="none" stroke="black" d="M81.234,-101.451C88.7497,-97.9168 97.1415,-94.2285 105,-91 147.905,-73.3731 198.62,-55.2138 231.678,-44.5252"/>
<polygon fill="black" stroke="black" points="232.87,-47.8189 241.342,-41.4568 230.752,-41.1471 232.87,-47.8189"/>
</g>
<!-- _1_Service1&#45;&gt;Log -->
<g id="edge13" class="edge"><title>_1_Service1&#45;&gt;Log</title>
<path fill="none" stroke="gray" d="M109.894,-96.5535C114.33,-94.6325 118.743,-92.7488 123,-91 152.781,-78.7649 186.325,-66.2733 213.505,-56.2016"/>
<polygon fill="none" stroke="gray" points="215.051,-59.3615 223.212,-52.6055 212.619,-52.7975 215.051,-59.3615"/>
</g>
<!-- _2_Service1 -->
<g id="node3" class="node"><title>_2_Service1</title>
<ellipse fill="none" stroke="black" cx="169" cy="-117" rx="42.949" ry="18"/>
<text text-anchor="middle" x="169" y="-114.8" font-family="Verdana" font-size="9.00">_2_Service1</text>
</g>
<!-- _2_Service1&#45;&gt;Log -->
<g id="edge2" class="edge"><title>_2_Service1&#45;&gt;Log</title>
<path fill="none" stroke="black" d="M183.081,-99.6084C197.629,-86.1808 220.299,-67.1943 238.361,-53.2779"/>
<polygon fill="black" stroke="black" points="240.933,-55.7212 246.802,-46.9002 236.713,-50.1361 240.933,-55.7212"/>
</g>
<!-- _2_Service1&#45;&gt;Log -->
<g id="edge14" class="edge"><title>_2_Service1&#45;&gt;Log</title>
<path fill="none" stroke="gray" d="M204.932,-91.2348C208.322,-88.5463 211.798,-85.7482 215.288,-82.8995"/>
<polygon fill="none" stroke="gray" points="217.725,-85.4263 223.214,-76.3642 213.272,-80.0255 217.725,-85.4263"/>
</g>
<!-- _3_Service1 -->
<g id="node4" class="node"><title>_3_Service1</title>
<ellipse fill="none" stroke="black" cx="249" cy="-200" rx="42.949" ry="18"/>
<text text-anchor="middle" x="249" y="-197.8" font-family="Verdana" font-size="9.00">_3_Service1</text>
</g>
<!-- _3_Service1&#45;&gt;_2_Service1 -->
<g id="edge15" class="edge"><title>_3_Service1&#45;&gt;_2_Service1</title>
<path fill="none" stroke="gray" d="M224.761,-174.458C224.336,-174.028 223.908,-173.594 223.477,-173.158"/>
<polygon fill="none" stroke="gray" points="225.728,-170.456 216.211,-165.801 220.748,-175.375 225.728,-170.456"/>
</g>
<!-- _2_Service2 -->
<g id="node8" class="node"><title>_2_Service2</title>
<ellipse fill="none" stroke="black" cx="272" cy="-117" rx="42.949" ry="18"/>
<text text-anchor="middle" x="272" y="-114.8" font-family="Verdana" font-size="9.00">_2_Service2</text>
</g>
<!-- _3_Service1&#45;&gt;_2_Service2 -->
<g id="edge3" class="edge"><title>_3_Service1&#45;&gt;_2_Service2</title>
<path fill="none" stroke="black" d="M253.878,-181.822C256.927,-171.083 260.919,-157.025 264.38,-144.837"/>
<polygon fill="black" stroke="black" points="267.765,-145.729 267.129,-135.153 261.031,-143.817 267.765,-145.729"/>
</g>
<!-- _4_Service1 -->
<g id="node5" class="node"><title>_4_Service1</title>
<ellipse fill="none" stroke="black" cx="89" cy="-200" rx="42.949" ry="18"/>
<text text-anchor="middle" x="89" y="-197.8" font-family="Verdana" font-size="9.00">_4_Service1</text>
</g>
<!-- _4_Service1&#45;&gt;_2_Service1 -->
<g id="edge4" class="edge"><title>_4_Service1&#45;&gt;_2_Service1</title>
<path fill="none" stroke="black" d="M99.9833,-182.217C110.677,-170.018 126.937,-153.387 141.078,-140.107"/>
<polygon fill="black" stroke="black" points="143.678,-142.47 148.667,-133.123 138.938,-137.319 143.678,-142.47"/>
</g>
<!-- _4_Service1&#45;&gt;_2_Service1 -->
<g id="edge16" class="edge"><title>_4_Service1&#45;&gt;_2_Service1</title>
<path fill="none" stroke="gray" d="M119.666,-174.3C120.172,-173.819 120.68,-173.334 121.189,-172.847"/>
<polygon fill="none" stroke="gray" points="123.87,-175.122 128.602,-165.642 118.991,-170.102 123.87,-175.122"/>
</g>
<!-- _5_Service1 -->
<g id="node6" class="node"><title>_5_Service1</title>
<ellipse fill="none" stroke="black" cx="329" cy="-283" rx="42.949" ry="18"/>
<text text-anchor="middle" x="329" y="-280.8" font-family="Verdana" font-size="9.00">_5_Service1</text>
</g>
<!-- _5_Service1&#45;&gt;Log -->
<g id="edge6" class="edge"><title>_5_Service1&#45;&gt;Log</title>
<path fill="none" stroke="black" d="M348.792,-266.694C354.726,-261.906 360.498,-256.003 364,-249 378.907,-219.186 372.783,-206.155 364,-174 350.837,-125.812 310.613,-82.309 285.778,-57.2714"/>
<polygon fill="black" stroke="black" points="288.159,-54.7027 278.611,-50.1092 283.21,-59.6538 288.159,-54.7027"/>
</g>
<!-- _5_Service1&#45;&gt;Log -->
<g id="edge17" class="edge"><title>_5_Service1&#45;&gt;Log</title>
<path fill="none" stroke="gray" d="M376.434,-257.316C378.621,-254.743 380.515,-251.971 382,-249 396.907,-219.186 390.783,-206.155 382,-174 371.395,-135.176 343.225,-99.3942 317.212,-73.8594"/>
<polygon fill="none" stroke="gray" points="319.602,-71.302 309.949,-66.935 314.772,-76.3686 319.602,-71.302"/>
</g>
<!-- _5_Service1&#45;&gt;_3_Service1 -->
<g id="edge7" class="edge"><title>_5_Service1&#45;&gt;_3_Service1</title>
<path fill="none" stroke="black" d="M308.541,-266.765C295.516,-255.042 279.021,-238.618 266.585,-225.116"/>
<polygon fill="black" stroke="black" points="269.079,-222.655 259.789,-217.561 263.875,-227.336 269.079,-222.655"/>
</g>
<!-- _5_Service1&#45;&gt;_3_Service1 -->
<g id="edge18" class="edge"><title>_5_Service1&#45;&gt;_3_Service1</title>
<path fill="none" stroke="gray" d="M310.619,-257.022C309.408,-255.713 308.161,-254.379 306.885,-253.026"/>
<polygon fill="none" stroke="gray" points="309.213,-250.398 299.768,-245.599 304.159,-255.241 309.213,-250.398"/>
</g>
<!-- Main1 -->
<g id="node9" class="node"><title>Main1</title>
<ellipse fill="none" stroke="black" cx="337" cy="-200" rx="27" ry="18"/>
<text text-anchor="middle" x="337" y="-197.8" font-family="Verdana" font-size="9.00">Main1</text>
</g>
<!-- _5_Service1&#45;&gt;Main1 -->
<g id="edge5" class="edge"><title>_5_Service1&#45;&gt;Main1</title>
<path fill="none" stroke="black" d="M330.697,-264.822C331.747,-254.19 333.118,-240.306 334.313,-228.204"/>
<polygon fill="black" stroke="black" points="337.806,-228.449 335.306,-218.153 330.84,-227.761 337.806,-228.449"/>
</g>
<!-- _6_GreedyService1 -->
<g id="node7" class="node"><title>_6_GreedyService1</title>
<ellipse fill="none" stroke="black" cx="329" cy="-366" rx="62.208" ry="18"/>
<text text-anchor="middle" x="329" y="-363.8" font-family="Verdana" font-size="9.00">_6_GreedyService1</text>
</g>
<!-- _6_GreedyService1&#45;&gt;Log -->
<g id="edge8" class="edge"><title>_6_GreedyService1&#45;&gt;Log</title>
<path fill="none" stroke="black" d="M362.8,-350.665C370.814,-345.81 378.594,-339.633 384,-332 424.818,-274.362 412.814,-243.632 401,-174 394.463,-135.475 397.484,-120.622 372,-91 352.997,-68.9112 323.077,-54.234 299.863,-45.4681"/>
<polygon fill="black" stroke="black" points="300.971,-42.1472 290.377,-42.0688 298.61,-48.737 300.971,-42.1472"/>
</g>
<!-- _6_GreedyService1&#45;&gt;_1_Service1 -->
<g id="edge19" class="edge"><title>_6_GreedyService1&#45;&gt;_1_Service1</title>
<path fill="none" stroke="gray" d="M259.209,-360.636C187.654,-351.895 80.4685,-325.901 34,-249 20.7374,-227.052 23.6303,-199.574 31.1821,-175.46"/>
<polygon fill="none" stroke="gray" points="34.5936,-176.303 34.5388,-165.708 27.9747,-174.024 34.5936,-176.303"/>
</g>
<!-- _6_GreedyService1&#45;&gt;_2_Service1 -->
<g id="edge10" class="edge"><title>_6_GreedyService1&#45;&gt;_2_Service1</title>
<path fill="none" stroke="black" d="M280.231,-354.685C265.102,-349.565 249.27,-342.225 237,-332 179.996,-284.493 165.19,-191.407 164.907,-145.266"/>
<polygon fill="black" stroke="black" points="168.409,-145.187 165.105,-135.121 161.41,-145.051 168.409,-145.187"/>
</g>
<!-- _6_GreedyService1&#45;&gt;_2_Service1 -->
<g id="edge20" class="edge"><title>_6_GreedyService1&#45;&gt;_2_Service1</title>
<path fill="none" stroke="gray" d="M266.178,-340.021C262.248,-337.569 258.481,-334.901 255,-332 208.753,-293.458 190.28,-224.916 181.002,-175.78"/>
<polygon fill="none" stroke="gray" points="184.441,-175.13 179.209,-165.918 177.554,-176.382 184.441,-175.13"/>
</g>
<!-- _6_GreedyService1&#45;&gt;_3_Service1 -->
<g id="edge21" class="edge"><title>_6_GreedyService1&#45;&gt;_3_Service1</title>
<path fill="none" stroke="gray" d="M280.926,-340.012C278.354,-337.544 276.008,-334.876 274,-332 259.224,-310.836 252.577,-283.262 249.78,-258.875"/>
<polygon fill="none" stroke="gray" points="253.238,-258.268 248.804,-248.646 246.27,-258.933 253.238,-258.268"/>
</g>
<!-- _6_GreedyService1&#45;&gt;_5_Service1 -->
<g id="edge11" class="edge"><title>_6_GreedyService1&#45;&gt;_5_Service1</title>
<path fill="none" stroke="black" d="M323.364,-347.822C322.207,-337.118 321.951,-323.118 322.597,-310.958"/>
<polygon fill="black" stroke="black" points="326.095,-311.121 323.397,-300.876 319.117,-310.567 326.095,-311.121"/>
</g>
<!-- _6_GreedyService1&#45;&gt;_5_Service1 -->
<g id="edge22" class="edge"><title>_6_GreedyService1&#45;&gt;_5_Service1</title>
<path fill="none" stroke="gray" d="M335.166,-340C335.288,-337.93 335.41,-335.86 335.532,-333.789"/>
<polygon fill="none" stroke="gray" points="338.559,-341.908 335.654,-331.719 331.571,-341.496 338.559,-341.908"/>
</g>
<!-- _3_Service2 -->
<g id="node10" class="node"><title>_3_Service2</title>
<ellipse fill="none" stroke="black" cx="519" cy="-283" rx="42.949" ry="18"/>
<text text-anchor="middle" x="519" y="-280.8" font-family="Verdana" font-size="9.00">_3_Service2</text>
</g>
<!-- _6_GreedyService1&#45;&gt;_3_Service2 -->
<g id="edge9" class="edge"><title>_6_GreedyService1&#45;&gt;_3_Service2</title>
<path fill="none" stroke="black" d="M383.74,-357.241C408.567,-352.281 437.733,-344.374 462,-332 474.55,-325.601 486.736,-315.961 496.598,-306.995"/>
<polygon fill="black" stroke="black" points="499.109,-309.437 503.971,-300.024 494.3,-304.351 499.109,-309.437"/>
</g>
<!-- _5_Service2 -->
<g id="node11" class="node"><title>_5_Service2</title>
<ellipse fill="none" stroke="black" cx="622" cy="-283" rx="42.949" ry="18"/>
<text text-anchor="middle" x="622" y="-280.8" font-family="Verdana" font-size="9.00">_5_Service2</text>
</g>
<!-- _6_GreedyService1&#45;&gt;_5_Service2 -->
<g id="edge12" class="edge"><title>_6_GreedyService1&#45;&gt;_5_Service2</title>
<path fill="none" stroke="black" d="M388.98,-361.015C449.956,-356.222 539.764,-346.909 571,-332 582.712,-326.41 593.523,-317.137 602.149,-308.225"/>
<polygon fill="black" stroke="black" points="604.968,-310.328 609.134,-300.586 599.803,-305.604 604.968,-310.328"/>
</g>
</g>
</svg>
