<?xml version="1.0" encoding="UTF-8" standalone="no"?>
<!DOCTYPE svg PUBLIC "-//W3C//DTD SVG 1.1//EN"
 "http://www.w3.org/Graphics/SVG/1.1/DTD/svg11.dtd">
<!-- Generated by graphviz version 2.38.0 (20140413.2041)
 -->
<!-- Title: dependencies Pages: 1 -->
<svg width="799pt" height="420pt"
 viewBox="0.00 0.00 798.56 420.00" xmlns="http://www.w3.org/2000/svg" xmlns:xlink="http://www.w3.org/1999/xlink">
<g id="graph0" class="graph" transform="scale(1 1) rotate(0) translate(4 416)">
<title>dependencies</title>
<polygon fill="white" stroke="none" points="-4,4 -4,-416 794.561,-416 794.561,4 -4,4"/>
<g id="clust1" class="cluster"><title>cluster_MainModule</title>
<polygon fill="none" stroke="black" points="221.588,-8 221.588,-155 308.588,-155 308.588,-8 221.588,-8"/>
<text text-anchor="middle" x="265.088" y="-139.8" font-family="Times New Roman,serif" font-size="14.00">MainModule</text>
</g>
<g id="clust4" class="cluster"><title>cluster_Module3</title>
<polygon fill="none" stroke="black" points="316.588,-163 316.588,-238 521.588,-238 521.588,-163 316.588,-163"/>
<text text-anchor="middle" x="419.088" y="-222.8" font-family="Times New Roman,serif" font-size="14.00">Module3</text>
</g>
<g id="clust3" class="cluster"><title>cluster_Module2</title>
<polygon fill="none" stroke="black" points="316.588,-80 316.588,-155 624.588,-155 624.588,-80 316.588,-80"/>
<text text-anchor="middle" x="470.588" y="-139.8" font-family="Times New Roman,serif" font-size="14.00">Module2</text>
</g>
<g id="clust5" class="cluster"><title>cluster_Module4</title>
<polygon fill="none" stroke="black" points="529.588,-163 529.588,-238 734.588,-238 734.588,-163 529.588,-163"/>
<text text-anchor="middle" x="632.088" y="-222.8" font-family="Times New Roman,serif" font-size="14.00">Module4</text>
</g>
<g id="clust2" class="cluster"><title>cluster_Module1</title>
<polygon fill="none" stroke="black" points="15.5885,-163 15.5885,-238 220.588,-238 220.588,-163 15.5885,-163"/>
<text text-anchor="middle" x="118.088" y="-222.8" font-family="Times New Roman,serif" font-size="14.00">Module1</text>
</g>
<g id="clust7" class="cluster"><title>cluster_Module6</title>
<polygon fill="none" stroke="black" points="291.588,-329 291.588,-404 431.588,-404 431.588,-329 291.588,-329"/>
<text text-anchor="middle" x="361.588" y="-388.8" font-family="Times New Roman,serif" font-size="14.00">Module6</text>
</g>
<g id="clust6" class="cluster"><title>cluster_Module5</title>
<polygon fill="none" stroke="black" points="419.588,-246 419.588,-321 727.588,-321 727.588,-246 419.588,-246"/>
<text text-anchor="middle" x="573.588" y="-305.8" font-family="Times New Roman,serif" font-size="14.00">Module5</text>
</g>
<!-- Log -->
<g id="node1" class="node"><title>Log</title>
<ellipse fill="none" stroke="black" cx="273.588" cy="-34" rx="27" ry="18"/>
<text text-anchor="middle" x="273.588" y="-31.8" font-family="Verdana" font-size="9.00">Log</text>
</g>
<!-- Main1 -->
<g id="node2" class="node"><title>Main1</title>
<ellipse fill="none" stroke="black" cx="273.588" cy="-106" rx="27" ry="18"/>
<text text-anchor="middle" x="273.588" y="-103.8" font-family="Verdana" font-size="9.00">Main1</text>
</g>
<!-- Main1&#45;&gt;Log -->
<g id="edge1" class="edge"><title>Main1&#45;&gt;Log</title>
<path fill="none" stroke="black" d="M273.588,-87.6966C273.588,-79.9827 273.588,-70.7125 273.588,-62.1124"/>
<polygon fill="black" stroke="black" points="277.089,-62.1043 273.588,-52.1043 270.089,-62.1044 277.089,-62.1043"/>
</g>
<!-- _1_Service1 -->
<g id="node3" class="node"><title>_1_Service1</title>
<ellipse fill="none" stroke="black" cx="66.5885" cy="-189" rx="42.949" ry="18"/>
<text text-anchor="middle" x="66.5885" y="-186.8" font-family="Verdana" font-size="9.00">_1_Service1</text>
</g>
<!-- _1_Service1&#45;&gt;Log -->
<g id="edge2" class="edge"><title>_1_Service1&#45;&gt;Log</title>
<path fill="none" stroke="black" d="M77.9064,-171.531C98.8611,-149.351 143.625,-109.287 185.588,-80 202.953,-67.881 223.814,-56.1057 241.032,-47.6421"/>
<polygon fill="black" stroke="black" points="242.646,-50.7505 250.178,-43.2996 239.643,-44.427 242.646,-50.7505"/>
</g>
<!-- _1_Service1&#45;&gt;Log -->
<g id="edge25" class="edge"><title>_1_Service1&#45;&gt;Log</title>
<path fill="none" stroke="gray" d="M100.097,-163.119C127.227,-140.185 166.501,-105.883 203.588,-80 206.665,-77.8527 209.852,-75.7162 213.094,-73.6069"/>
<polygon fill="none" stroke="gray" points="215.203,-76.4138 221.769,-68.0988 211.451,-70.5044 215.203,-76.4138"/>
</g>
<!-- _1_Service2 -->
<g id="node4" class="node"><title>_1_Service2</title>
<ellipse fill="none" stroke="black" cx="169.588" cy="-189" rx="42.949" ry="18"/>
<text text-anchor="middle" x="169.588" y="-186.8" font-family="Verdana" font-size="9.00">_1_Service2</text>
</g>
<!-- _1_Service2&#45;&gt;Log -->
<g id="edge4" class="edge"><title>_1_Service2&#45;&gt;Log</title>
<path fill="none" stroke="black" d="M182.731,-171.513C186.685,-166.328 190.94,-160.515 194.588,-155 215.788,-122.955 215.967,-111.763 237.588,-80 242.687,-72.51 248.683,-64.6877 254.305,-57.7056"/>
<polygon fill="black" stroke="black" points="257.018,-59.9166 260.654,-49.9655 251.606,-55.4768 257.018,-59.9166"/>
</g>
<!-- _1_Service2&#45;&gt;Main1 -->
<g id="edge3" class="edge"><title>_1_Service2&#45;&gt;Main1</title>
<path fill="none" stroke="black" d="M198.59,-175.693C209.796,-170.221 222.356,-163.16 232.588,-155 241.328,-148.03 249.612,-138.994 256.417,-130.645"/>
<polygon fill="black" stroke="black" points="259.284,-132.66 262.689,-122.627 253.771,-128.347 259.284,-132.66"/>
</g>
<!-- _2_Service1 -->
<g id="node5" class="node"><title>_2_Service1</title>
<ellipse fill="none" stroke="black" cx="573.588" cy="-106" rx="42.949" ry="18"/>
<text text-anchor="middle" x="573.588" y="-103.8" font-family="Verdana" font-size="9.00">_2_Service1</text>
</g>
<!-- _2_Service1&#45;&gt;Log -->
<g id="edge5" class="edge"><title>_2_Service1&#45;&gt;Log</title>
<path fill="none" stroke="black" d="M543.982,-92.9256C534.364,-88.2911 523.707,-83.3225 513.588,-80 443.551,-57.0012 358.342,-44.8182 310.48,-39.1536"/>
<polygon fill="black" stroke="black" points="310.619,-35.6466 300.284,-37.9784 309.817,-42.6005 310.619,-35.6466"/>
</g>
<!-- _2_Service1&#45;&gt;Log -->
<g id="edge26" class="edge"><title>_2_Service1&#45;&gt;Log</title>
<path fill="none" stroke="gray" d="M531.588,-80C455.606,-55.0492 361.769,-42.8281 310.659,-37.8495"/>
<polygon fill="none" stroke="gray" points="319.135,-37.9023 308.588,-36.8951 316.205,-44.2597 319.135,-37.9023"/>
</g>
<!-- _2_Service2 -->
<g id="node6" class="node"><title>_2_Service2</title>
<ellipse fill="none" stroke="black" cx="470.588" cy="-106" rx="42.949" ry="18"/>
<text text-anchor="middle" x="470.588" y="-103.8" font-family="Verdana" font-size="9.00">_2_Service2</text>
</g>
<!-- _2_Service2&#45;&gt;Log -->
<g id="edge7" class="edge"><title>_2_Service2&#45;&gt;Log</title>
<path fill="none" stroke="black" d="M444.998,-91.4813C436.981,-87.5118 428.022,-83.3428 419.588,-80 382.312,-65.2247 338.148,-52.2072 308.229,-44.024"/>
<polygon fill="black" stroke="black" points="308.842,-40.5643 298.276,-41.3362 307.017,-47.3222 308.842,-40.5643"/>
</g>
<!-- _2_Service2&#45;&gt;Main1 -->
<g id="edge6" class="edge"><title>_2_Service2&#45;&gt;Main1</title>
<path fill="none" stroke="black" d="M458.736,-123.509C448.076,-137.22 430.982,-154.672 410.588,-159 391.242,-163.106 340.935,-163.106 321.588,-159 317.307,-158.091 316.051,-157.678 312.588,-155 303.946,-148.314 296.078,-139.326 289.709,-130.874"/>
<polygon fill="black" stroke="black" points="292.531,-128.803 283.867,-122.705 286.837,-132.875 292.531,-128.803"/>
</g>
<!-- _2_Service3 -->
<g id="node7" class="node"><title>_2_Service3</title>
<ellipse fill="none" stroke="black" cx="367.588" cy="-106" rx="42.949" ry="18"/>
<text text-anchor="middle" x="367.588" y="-103.8" font-family="Verdana" font-size="9.00">_2_Service3</text>
</g>
<!-- _2_Service3&#45;&gt;Log -->
<g id="edge8" class="edge"><title>_2_Service3&#45;&gt;Log</title>
<path fill="none" stroke="black" d="M347.192,-89.811C333.199,-79.391 314.516,-65.4778 299.474,-54.2768"/>
<polygon fill="black" stroke="black" points="301.213,-51.2076 291.102,-48.0421 297.032,-56.8219 301.213,-51.2076"/>
</g>
<!-- _3_Service1 -->
<g id="node8" class="node"><title>_3_Service1</title>
<ellipse fill="none" stroke="black" cx="470.588" cy="-189" rx="42.949" ry="18"/>
<text text-anchor="middle" x="470.588" y="-186.8" font-family="Verdana" font-size="9.00">_3_Service1</text>
</g>
<!-- _3_Service1&#45;&gt;_2_Service1 -->
<g id="edge27" class="edge"><title>_3_Service1&#45;&gt;_2_Service1</title>
<path fill="none" stroke="gray" d="M511.442,-163.127C512.478,-162.412 513.51,-161.691 514.533,-160.965"/>
<polygon fill="none" stroke="gray" points="516.635,-163.764 522.588,-155 512.469,-158.138 516.635,-163.764"/>
</g>
<!-- _3_Service1&#45;&gt;_2_Service2 -->
<g id="edge9" class="edge"><title>_3_Service1&#45;&gt;_2_Service2</title>
<path fill="none" stroke="black" d="M470.588,-170.822C470.588,-160.19 470.588,-146.306 470.588,-134.204"/>
<polygon fill="black" stroke="black" points="474.089,-134.153 470.588,-124.153 467.089,-134.153 474.089,-134.153"/>
</g>
<!-- _3_Service2 -->
<g id="node9" class="node"><title>_3_Service2</title>
<ellipse fill="none" stroke="black" cx="367.588" cy="-189" rx="42.949" ry="18"/>
<text text-anchor="middle" x="367.588" y="-186.8" font-family="Verdana" font-size="9.00">_3_Service2</text>
</g>
<!-- _3_Service2&#45;&gt;_2_Service3 -->
<g id="edge10" class="edge"><title>_3_Service2&#45;&gt;_2_Service3</title>
<path fill="none" stroke="black" d="M367.588,-170.822C367.588,-160.19 367.588,-146.306 367.588,-134.204"/>
<polygon fill="black" stroke="black" points="371.089,-134.153 367.588,-124.153 364.089,-134.153 371.089,-134.153"/>
</g>
<!-- _4_Service1 -->
<g id="node10" class="node"><title>_4_Service1</title>
<ellipse fill="none" stroke="black" cx="683.588" cy="-189" rx="42.949" ry="18"/>
<text text-anchor="middle" x="683.588" y="-186.8" font-family="Verdana" font-size="9.00">_4_Service1</text>
</g>
<!-- _4_Service1&#45;&gt;_2_Service1 -->
<g id="edge11" class="edge"><title>_4_Service1&#45;&gt;_2_Service1</title>
<path fill="none" stroke="black" d="M659.437,-174.076C641.045,-161.759 616.059,-143.571 597.693,-129.241"/>
<polygon fill="black" stroke="black" points="599.78,-126.429 589.768,-122.963 595.433,-131.916 599.78,-126.429"/>
</g>
<!-- _4_Service1&#45;&gt;_2_Service1 -->
<g id="edge28" class="edge"><title>_4_Service1&#45;&gt;_2_Service1</title>
<path fill="none" stroke="gray" d="M656.134,-163.159C648.923,-157.591 640.882,-151.556 632.721,-145.577"/>
<polygon fill="none" stroke="gray" points="634.483,-142.531 624.335,-139.485 630.368,-148.194 634.483,-142.531"/>
</g>
<!-- _4_Service2 -->
<g id="node11" class="node"><title>_4_Service2</title>
<ellipse fill="none" stroke="black" cx="580.588" cy="-189" rx="42.949" ry="18"/>
<text text-anchor="middle" x="580.588" y="-186.8" font-family="Verdana" font-size="9.00">_4_Service2</text>
</g>
<!-- _4_Service2&#45;&gt;_2_Service1 -->
<g id="edge12" class="edge"><title>_4_Service2&#45;&gt;_2_Service1</title>
<path fill="none" stroke="black" d="M579.104,-170.822C578.185,-160.19 576.985,-146.306 575.939,-134.204"/>
<polygon fill="black" stroke="black" points="579.419,-133.815 575.071,-124.153 572.445,-134.417 579.419,-133.815"/>
</g>
<!-- _5_Service1 -->
<g id="node12" class="node"><title>_5_Service1</title>
<ellipse fill="none" stroke="black" cx="470.588" cy="-272" rx="42.949" ry="18"/>
<text text-anchor="middle" x="470.588" y="-269.8" font-family="Verdana" font-size="9.00">_5_Service1</text>
</g>
<!-- _5_Service1&#45;&gt;Log -->
<g id="edge14" class="edge"><title>_5_Service1&#45;&gt;Log</title>
<path fill="none" stroke="black" d="M488.145,-255.565C495.517,-251.731 504.173,-248.116 512.588,-246 524.288,-243.059 721.217,-246.686 729.588,-238 752.72,-214 744.452,-192.836 729.588,-163 702.279,-108.181 676.321,-103.072 619.588,-80 563.663,-57.2568 388.033,-43.1093 310.635,-37.6148"/>
<polygon fill="black" stroke="black" points="310.608,-34.1045 300.388,-36.8969 310.119,-41.0873 310.608,-34.1045"/>
</g>
<!-- _5_Service1&#45;&gt;Log -->
<g id="edge29" class="edge"><title>_5_Service1&#45;&gt;Log</title>
<path fill="none" stroke="gray" d="M530.588,-246C542.288,-243.059 739.217,-246.686 747.588,-238 770.72,-214 762.452,-192.836 747.588,-163 720.279,-108.181 694.321,-103.072 637.588,-80 579.346,-56.3144 391.272,-41.9516 310.637,-36.9764"/>
<polygon fill="none" stroke="gray" points="319.172,-35.878 308.588,-36.363 317.165,-42.584 319.172,-35.878"/>
</g>
<!-- _5_Service1&#45;&gt;Main1 -->
<g id="edge13" class="edge"><title>_5_Service1&#45;&gt;Main1</title>
<path fill="none" stroke="black" d="M429.082,-267.135C388.128,-262.5 329.294,-253.367 312.588,-238 283.657,-211.388 275.838,-164.363 273.922,-134.487"/>
<polygon fill="black" stroke="black" points="277.411,-134.154 273.455,-124.325 270.418,-134.475 277.411,-134.154"/>
</g>
<!-- _5_Service1&#45;&gt;_3_Service1 -->
<g id="edge15" class="edge"><title>_5_Service1&#45;&gt;_3_Service1</title>
<path fill="none" stroke="black" d="M464.952,-253.822C463.795,-243.118 463.54,-229.118 464.186,-216.958"/>
<polygon fill="black" stroke="black" points="467.684,-217.121 464.986,-206.876 460.706,-216.567 467.684,-217.121"/>
</g>
<!-- _5_Service1&#45;&gt;_3_Service1 -->
<g id="edge30" class="edge"><title>_5_Service1&#45;&gt;_3_Service1</title>
<path fill="none" stroke="gray" d="M476.754,-246C476.876,-243.93 476.998,-241.86 477.12,-239.789"/>
<polygon fill="none" stroke="gray" points="480.147,-247.908 477.242,-237.719 473.16,-247.496 480.147,-247.908"/>
</g>
<!-- _5_Service2 -->
<g id="node13" class="node"><title>_5_Service2</title>
<ellipse fill="none" stroke="black" cx="676.588" cy="-272" rx="42.949" ry="18"/>
<text text-anchor="middle" x="676.588" y="-269.8" font-family="Verdana" font-size="9.00">_5_Service2</text>
</g>
<!-- _5_Service2&#45;&gt;Log -->
<g id="edge16" class="edge"><title>_5_Service2&#45;&gt;Log</title>
<path fill="none" stroke="black" d="M717.923,-266.846C736.619,-262.666 757.066,-254.375 768.588,-238 812.286,-175.902 770.03,-116.76 703.588,-80 636.463,-42.8616 402.388,-36.3411 310.765,-35.2212"/>
<polygon fill="black" stroke="black" points="310.608,-31.7194 300.571,-35.112 310.533,-38.719 310.608,-31.7194"/>
</g>
<!-- _5_Service2&#45;&gt;_3_Service1 -->
<g id="edge17" class="edge"><title>_5_Service2&#45;&gt;_3_Service1</title>
<path fill="none" stroke="black" d="M652.681,-256.977C644.368,-252.733 634.812,-248.531 625.588,-246 582.591,-234.202 566.678,-255.309 525.588,-238 512.686,-232.565 500.678,-222.883 491.194,-213.63"/>
<polygon fill="black" stroke="black" points="493.64,-211.125 484.161,-206.392 488.619,-216.003 493.64,-211.125"/>
</g>
<!-- _5_Service3 -->
<g id="node14" class="node"><title>_5_Service3</title>
<ellipse fill="none" stroke="black" cx="573.588" cy="-272" rx="42.949" ry="18"/>
<text text-anchor="middle" x="573.588" y="-269.8" font-family="Verdana" font-size="9.00">_5_Service3</text>
</g>
<!-- _5_Service3&#45;&gt;Log -->
<g id="edge18" class="edge"><title>_5_Service3&#45;&gt;Log</title>
<path fill="none" stroke="black" d="M597.205,-256.978C605.574,-252.68 615.239,-248.444 624.588,-246 640.092,-241.948 757.576,-249.641 768.588,-238 820.77,-182.839 770.03,-116.76 703.588,-80 636.463,-42.8616 402.388,-36.3411 310.765,-35.2212"/>
<polygon fill="black" stroke="black" points="310.608,-31.7194 300.571,-35.112 310.533,-38.719 310.608,-31.7194"/>
</g>
<!-- _5_Service3&#45;&gt;_3_Service2 -->
<g id="edge19" class="edge"><title>_5_Service3&#45;&gt;_3_Service2</title>
<path fill="none" stroke="black" d="M549.685,-256.96C541.373,-252.716 531.816,-248.517 522.588,-246 477.863,-233.801 460.995,-256.731 418.588,-238 406.423,-232.627 395.344,-223.083 386.643,-213.913"/>
<polygon fill="black" stroke="black" points="389.197,-211.519 379.922,-206.398 383.979,-216.185 389.197,-211.519"/>
</g>
<!-- _6_GreedyService1 -->
<g id="node15" class="node"><title>_6_GreedyService1</title>
<ellipse fill="none" stroke="black" cx="361.588" cy="-355" rx="62.208" ry="18"/>
<text text-anchor="middle" x="361.588" y="-352.8" font-family="Verdana" font-size="9.00">_6_GreedyService1</text>
</g>
<!-- _6_GreedyService1&#45;&gt;Log -->
<g id="edge20" class="edge"><title>_6_GreedyService1&#45;&gt;Log</title>
<path fill="none" stroke="black" d="M299.129,-354.223C248.852,-352.375 177.307,-345.09 119.588,-321 63.7216,-297.683 38.3432,-292.304 11.5885,-238 -24.1282,-165.505 30.6826,-118.775 101.588,-80 144.723,-56.4117 200.765,-44.7559 236.955,-39.3155"/>
<polygon fill="black" stroke="black" points="237.652,-42.7517 247.061,-37.8806 236.668,-35.8213 237.652,-42.7517"/>
</g>
<!-- _6_GreedyService1&#45;&gt;_1_Service1 -->
<g id="edge31" class="edge"><title>_6_GreedyService1&#45;&gt;_1_Service1</title>
<path fill="none" stroke="gray" d="M291.961,-342.711C270.366,-337.714 246.914,-330.7 226.588,-321 187.081,-302.146 148.909,-271.532 119.764,-244.638"/>
<polygon fill="none" stroke="gray" points="121.864,-241.81 112.173,-237.529 117.079,-246.919 121.864,-241.81"/>
</g>
<!-- _6_GreedyService1&#45;&gt;_2_Service1 -->
<g id="edge22" class="edge"><title>_6_GreedyService1&#45;&gt;_2_Service1</title>
<path fill="none" stroke="black" d="M344.055,-337.661C312.722,-301.157 256.105,-212.326 303.588,-163 319.782,-146.178 492.051,-164.02 513.588,-155 526.458,-149.611 538.037,-139.408 547.708,-129.791"/>
<polygon fill="black" stroke="black" points="550.218,-132.23 554.72,-122.64 545.22,-127.329 550.218,-132.23"/>
</g>
<!-- _6_GreedyService1&#45;&gt;_2_Service1 -->
<g id="edge32" class="edge"><title>_6_GreedyService1&#45;&gt;_2_Service1</title>
<path fill="none" stroke="gray" d="M348.158,-329.117C323.2,-288.73 277.48,-208.821 321.588,-163 336.232,-147.788 478.507,-160.922 521.532,-156.905"/>
<polygon fill="none" stroke="gray" points="522.415,-160.301 531.588,-155 521.112,-153.423 522.415,-160.301"/>
</g>
<!-- _6_GreedyService1&#45;&gt;_3_Service1 -->
<g id="edge33" class="edge"><title>_6_GreedyService1&#45;&gt;_3_Service1</title>
<path fill="none" stroke="gray" d="M374.279,-329.482C375.739,-326.626 377.201,-323.751 378.588,-321 395.322,-287.811 394.072,-276.308 415.588,-246 415.651,-245.912 415.714,-245.824 415.777,-245.735"/>
<polygon fill="none" stroke="gray" points="418.709,-247.662 421.983,-237.585 413.14,-243.421 418.709,-247.662"/>
</g>
<!-- _6_GreedyService1&#45;&gt;_3_Service2 -->
<g id="edge21" class="edge"><title>_6_GreedyService1&#45;&gt;_3_Service2</title>
<path fill="none" stroke="black" d="M362.219,-336.759C363.262,-308.263 365.352,-251.121 366.595,-217.157"/>
<polygon fill="black" stroke="black" points="370.098,-217.131 366.966,-207.01 363.103,-216.875 370.098,-217.131"/>
</g>
<!-- _6_GreedyService1&#45;&gt;_5_Service1 -->
<g id="edge23" class="edge"><title>_6_GreedyService1&#45;&gt;_5_Service1</title>
<path fill="none" stroke="black" d="M380.173,-337.715C387.903,-332.586 396.742,-326.753 404.588,-321 416.145,-312.526 428.372,-302.399 439.255,-293.636"/>
<polygon fill="black" stroke="black" points="441.635,-296.215 447.281,-287.251 437.277,-290.737 441.635,-296.215"/>
</g>
<!-- _6_GreedyService1&#45;&gt;_5_Service1 -->
<g id="edge34" class="edge"><title>_6_GreedyService1&#45;&gt;_5_Service1</title>
<path fill="none" stroke="gray" d="M410.984,-329.095C412.007,-328.414 413.024,-327.729 414.033,-327.041"/>
<polygon fill="none" stroke="gray" points="416.439,-329.628 422.588,-321 412.401,-323.91 416.439,-329.628"/>
</g>
<!-- _6_GreedyService1&#45;&gt;_5_Service2 -->
<g id="edge24" class="edge"><title>_6_GreedyService1&#45;&gt;_5_Service2</title>
<path fill="none" stroke="black" d="M422.473,-350.761C488.977,-346.459 590.689,-337.418 625.588,-321 637.332,-315.475 648.148,-306.214 656.769,-297.291"/>
<polygon fill="black" stroke="black" points="659.595,-299.387 663.748,-289.64 654.423,-294.67 659.595,-299.387"/>
</g>
</g>
</svg>
