<?xml version="1.0" encoding="UTF-8" standalone="no"?>
<!DOCTYPE svg PUBLIC "-//W3C//DTD SVG 1.1//EN"
 "http://www.w3.org/Graphics/SVG/1.1/DTD/svg11.dtd">
<!-- Generated by graphviz version 2.38.0 (20140413.2041)
 -->
<!-- Title: dependencies Pages: 1 -->
<svg width="677pt" height="171pt"
 viewBox="0.00 0.00 676.61 171.00" xmlns="http://www.w3.org/2000/svg" xmlns:xlink="http://www.w3.org/1999/xlink">
<g id="graph0" class="graph" transform="scale(1 1) rotate(0) translate(4 167)">
<title>dependencies</title>
<polygon fill="white" stroke="none" points="-4,4 -4,-167 672.611,-167 672.611,4 -4,4"/>
<g id="clust1" class="cluster"><title>cluster_recipe</title>
<polygon fill="none" stroke="black" points="8,-8 8,-155 569,-155 569,-8 8,-8"/>
<text text-anchor="middle" x="288.5" y="-139.8" font-family="Times New Roman,serif" font-size="14.00">recipe</text>
</g>
<!-- recipeCtrl -->
<g id="node1" class="node"><title>recipeCtrl</title>
<ellipse fill="none" stroke="black" cx="525" cy="-106" rx="35.5926" ry="18"/>
<text text-anchor="middle" x="525" y="-103.8" font-family="Verdana" font-size="9.00">recipeCtrl</text>
</g>
<!-- recipeService -->
<g id="node7" class="node"><title>recipeService</title>
<ellipse fill="none" stroke="black" cx="623" cy="-34" rx="45.7216" ry="18"/>
<text text-anchor="middle" x="623" y="-31.8" font-family="Verdana" font-size="9.00">recipeService</text>
</g>
<!-- recipeCtrl&#45;&gt;recipeService -->
<g id="edge1" class="edge"><title>recipeCtrl&#45;&gt;recipeService</title>
<path fill="none" stroke="black" d="M544.832,-90.8345C558.8,-80.857 577.741,-67.3281 593.479,-56.0865"/>
<polygon fill="black" stroke="black" points="595.738,-58.774 601.841,-50.1135 591.669,-53.0779 595.738,-58.774"/>
</g>
<!-- httpRecipeServiceWithQ -->
<g id="node2" class="node"><title>httpRecipeServiceWithQ</title>
<ellipse fill="none" stroke="black" cx="396" cy="-106" rx="75.1111" ry="18"/>
<text text-anchor="middle" x="396" y="-103.8" font-family="Verdana" font-size="9.00">httpRecipeServiceWithQ</text>
</g>
<!-- recipeValue -->
<g id="node3" class="node"><title>recipeValue</title>
<ellipse fill="none" stroke="black" cx="68" cy="-34" rx="40.9837" ry="18"/>
<text text-anchor="middle" x="68" y="-31.8" font-family="Verdana" font-size="9.00">recipeValue</text>
</g>
<!-- recipeValues -->
<g id="node4" class="node"><title>recipeValues</title>
<ellipse fill="none" stroke="black" cx="171" cy="-34" rx="44.412" ry="18"/>
<text text-anchor="middle" x="171" y="-31.8" font-family="Verdana" font-size="9.00">recipeValues</text>
</g>
<!-- resourceRecipeService -->
<g id="node5" class="node"><title>resourceRecipeService</title>
<ellipse fill="none" stroke="black" cx="233" cy="-106" rx="70.3735" ry="18"/>
<text text-anchor="middle" x="233" y="-103.8" font-family="Verdana" font-size="9.00">resourceRecipeService</text>
</g>
<!-- simpleRecipeService -->
<g id="node6" class="node"><title>simpleRecipeService</title>
<ellipse fill="none" stroke="black" cx="80" cy="-106" rx="64.1719" ry="18"/>
<text text-anchor="middle" x="80" y="-103.8" font-family="Verdana" font-size="9.00">simpleRecipeService</text>
</g>
<!-- simpleRecipeService&#45;&gt;recipeValue -->
<g id="edge2" class="edge"><title>simpleRecipeService&#45;&gt;recipeValue</title>
<path fill="none" stroke="black" d="M77.0337,-87.6966C75.7113,-79.9827 74.1221,-70.7125 72.6478,-62.1124"/>
<polygon fill="black" stroke="black" points="76.0716,-61.3692 70.9322,-52.1043 69.1722,-62.552 76.0716,-61.3692"/>
</g>
<!-- simpleRecipeService&#45;&gt;recipeValues -->
<g id="edge3" class="edge"><title>simpleRecipeService&#45;&gt;recipeValues</title>
<path fill="none" stroke="black" d="M101.106,-88.7646C113.628,-79.1321 129.651,-66.8073 143.195,-56.3886"/>
<polygon fill="black" stroke="black" points="145.462,-59.0603 151.254,-50.189 141.194,-53.5119 145.462,-59.0603"/>
</g>
</g>
</svg>
